HIERARCHY
ROOT Hips
{
	OFFSET -0.001795 -0.223333 0.028219
	CHANNELS 6 Xposition Yposition Zposition Zrotation Yrotation Xrotation 
	JOINT LeftUpLeg
	{
		OFFSET 0.069520 -0.091406 -0.006815
		CHANNELS 3 Zrotation Yrotation Xrotation
		JOINT LeftLeg
		{
			OFFSET 0.034277 -0.375199 -0.004496
			CHANNELS 3 Zrotation Yrotation Xrotation
			JOINT LeftFoot
			{
				OFFSET -0.013596 -0.397961 -0.043693
				CHANNELS 3 Zrotation Yrotation Xrotation
				JOINT LeftToe
				{
					OFFSET 0.026358 -0.055791 0.119288
					CHANNELS 3 Zrotation Yrotation Xrotation
					End Site
					{
						OFFSET 0.000000 0.000000 0.000000
					}
				}
			}
		}
	}
	JOINT RightUpLeg
	{
		OFFSET -0.067670 -0.090522 -0.004320
		CHANNELS 3 Zrotation Yrotation Xrotation
		JOINT RightLeg
		{
			OFFSET -0.038290 -0.382569 -0.008850
			CHANNELS 3 Zrotation Yrotation Xrotation
			JOINT RightFoot
			{
				OFFSET 0.015774 -0.398415 -0.042312
				CHANNELS 3 Zrotation Yrotation Xrotation
				JOINT RightToe
				{
					OFFSET -0.025372 -0.048144 0.123348
					CHANNELS 3 Zrotation Yrotation Xrotation
					End Site
					{
						OFFSET 0.000000 0.000000 0.000000
					}
				}
			}
		}
	}
	JOINT Spine
	{
		OFFSET -0.002533 0.108963 -0.026696
		CHANNELS 3 Zrotation Yrotation Xrotation
		JOINT Spine1
		{
			OFFSET 0.005487 0.135180 0.001092
			CHANNELS 3 Zrotation Yrotation Xrotation
			JOINT Spine2
			{
				OFFSET 0.001457 0.052922 0.025425
				CHANNELS 3 Zrotation Yrotation Xrotation
				JOINT Neck
				{
					OFFSET -0.002778 0.213870 -0.042857
					CHANNELS 3 Zrotation Yrotation Xrotation
					JOINT Head
					{
						OFFSET 0.005152 0.064970 0.051349
						CHANNELS 3 Zrotation Yrotation Xrotation
						End Site
						{
							OFFSET 0.000000 0.000000 0.000000
						}
					}
				}
				JOINT LeftShoulder
				{
					OFFSET 0.078845 0.121749 -0.034090
					CHANNELS 3 Zrotation Yrotation Xrotation
					JOINT LeftArm
					{
						OFFSET 0.090977 0.030469 -0.008868
						CHANNELS 3 Zrotation Yrotation Xrotation
						JOINT LeftForeArm
						{
							OFFSET 0.259612 -0.012772 -0.027456
							CHANNELS 3 Zrotation Yrotation Xrotation
							JOINT LeftHand
							{
								OFFSET 0.249234 0.008986 -0.001171
								CHANNELS 3 Zrotation Yrotation Xrotation
								End Site
								{
									OFFSET 0.000000 0.000000 0.000000
								}
							}
						}
					}
				}
				JOINT RightShoulder
				{
					OFFSET -0.081759 0.118833 -0.038615
					CHANNELS 3 Zrotation Yrotation Xrotation
					JOINT RightArm
					{
						OFFSET -0.096012 0.032551 -0.009143
						CHANNELS 3 Zrotation Yrotation Xrotation
						JOINT RightForeArm
						{
							OFFSET -0.253742 -0.013329 -0.021401
							CHANNELS 3 Zrotation Yrotation Xrotation
							JOINT RightHand
							{
								OFFSET -0.255298 0.007772 -0.005559
								CHANNELS 3 Zrotation Yrotation Xrotation
								End Site
								{
									OFFSET 0.000000 0.000000 0.000000
								}
							}
						}
					}
				}
			}
		}
	}
}
MOTION
Frames: 7
Frame Time: 0.050000
0.000000 0.941971 0.000000 -0.232110 0.703647 3.622724 -1.045142 -0.293849 -3.161613 -3.583214 0.394554 -4.980697 -1.668033 0.205559 7.670661 0.000000 0.000000 0.000000 -2.822850 0.973284 -11.866827 3.417072 -0.263614 12.331972 0.550914 -0.353598 3.459282 0.000000 0.000000 0.000000 4.770929 -0.264385 2.040154 -3.500981 1.430836 -25.967738 -1.661982 3.263247 28.755364 8.490552 -2.841365 -26.052109 0.000000 0.000000 0.000000 -8.876146 -0.476307 -0.572797 -57.934897 -11.458267 -4.244843 -115.663928 -69.552149 103.004583 0.000000 0.000000 0.000000 12.786737 -5.878007 -2.885015 64.271106 10.833410 -2.817844 128.307588 39.539543 86.059382 0.000000 0.000000 0.000000 
0.002529 0.942548 -0.001644 -0.270066 1.058491 4.383073 -0.532519 -0.287066 -3.145512 -4.688619 0.444483 -6.735171 -2.126036 -0.114346 8.766149 0.000000 0.000000 0.000000 -3.083738 0.949531 -11.798625 4.317994 -0.467580 10.969261 -0.243657 -2.099234 3.212882 0.000000 0.000000 0.000000 5.052311 -0.243616 1.501022 -4.055137 1.543804 -26.614250 -1.607204 2.717801 29.140504 8.517217 -3.007904 -25.548011 0.000000 0.000000 0.000000 -9.015335 -0.158833 -0.679220 -57.488617 -13.719720 -3.141603 -118.697422 -69.877250 107.089009 0.000000 0.000000 0.000000 13.339221 -6.870660 -3.479059 64.395068 10.737237 -2.964529 128.944255 38.352285 84.895952 0.000000 0.000000 0.000000 
0.004317 0.943059 -0.003359 0.144146 1.367519 4.013251 -0.598423 -0.256338 -2.821004 -5.567218 0.479600 -6.791070 -2.431730 -0.398863 9.277752 0.000000 0.000000 0.000000 -3.123689 0.988205 -12.522819 3.995430 -0.409775 12.580392 -1.053803 -4.130154 3.580851 0.000000 0.000000 0.000000 5.730669 -0.264763 1.545145 -5.837672 1.926967 -26.685470 -1.442591 2.183013 29.794577 8.109333 -2.739176 -26.308521 0.000000 0.000000 0.000000 -8.016433 -1.128029 -0.126576 -58.077374 -17.208306 -1.475690 -123.179367 -70.096164 113.069966 0.000000 0.000000 0.000000 15.038767 -6.179878 -3.305442 62.814234 12.083293 -2.449346 127.039409 38.830481 82.750229 0.000000 0.000000 0.000000 
0.005435 0.943272 -0.004646 0.285027 1.602122 4.119384 -1.104812 -0.270072 -2.956553 -5.062798 0.452147 -6.914301 -2.570078 -0.545982 9.435014 0.000000 0.000000 0.000000 -3.208382 0.976712 -12.518546 3.754416 -0.364487 12.285415 -1.133425 -4.336552 3.671516 0.000000 0.000000 0.000000 5.970556 -0.255026 1.328254 -5.945941 1.931349 -27.293130 -1.727070 1.794987 30.724515 8.175175 -2.753081 -26.913930 0.000000 0.000000 0.000000 -7.275535 -1.223091 0.003913 -59.839305 -19.491443 -0.301102 -128.608877 -70.626484 120.769441 0.000000 0.000000 0.000000 14.192583 -6.760446 -3.549856 63.337303 13.668736 -1.649870 125.881018 38.670786 81.230845 0.000000 0.000000 0.000000 
0.005617 0.944141 -0.005422 0.349239 1.348062 3.842529 -1.155098 -0.226816 -2.511661 -5.132056 0.455642 -7.232174 -2.564456 -0.387347 9.828879 0.000000 0.000000 0.000000 -2.823557 0.961676 -11.852335 2.921607 -0.181955 11.529666 -0.997126 -4.084209 3.808759 0.000000 0.000000 0.000000 5.946725 -0.274018 1.611555 -5.622845 1.886812 -26.598170 -1.879636 1.713226 30.093293 8.046187 -2.753239 -26.587932 0.000000 0.000000 0.000000 -7.434961 -2.564520 0.574626 -59.776266 -21.284962 0.754972 -131.795534 -70.343076 124.529248 0.000000 0.000000 0.000000 13.563414 -6.198534 -3.265628 62.091208 15.551305 -0.611847 124.015030 40.324098 80.720513 0.000000 0.000000 0.000000 
0.004511 0.944221 -0.005282 0.156623 1.324679 4.080861 -0.826841 -0.243229 -2.682737 -5.205809 0.456404 -7.392247 -2.549910 -0.346049 9.874462 0.000000 0.000000 0.000000 -2.543348 0.945530 -11.322438 2.917377 -0.194593 10.125854 -0.934107 -3.984234 3.928973 0.000000 0.000000 0.000000 5.911259 -0.265986 1.486314 -5.449312 1.823080 -27.427527 -1.794211 1.110284 30.893371 7.487514 -2.477958 -27.070918 0.000000 0.000000 0.000000 -7.114803 -2.821851 0.772369 -61.314601 -22.815228 1.718348 -129.132161 -69.101682 120.837441 0.000000 0.000000 0.000000 12.373119 -5.177123 -2.734877 61.788365 17.196320 0.160228 123.319543 42.119241 82.134233 0.000000 0.000000 0.000000 
0.001928 0.943718 -0.004398 -0.078275 0.712316 3.792965 -0.621574 -0.206133 -2.280640 -4.859131 0.452260 -7.404601 -2.169639 0.082974 9.479892 0.000000 0.000000 0.000000 -2.159035 0.904843 -10.399047 2.958553 -0.202275 9.026383 -0.672666 -3.347285 3.757695 0.000000 0.000000 0.000000 5.926143 -0.254590 1.428655 -5.192964 1.778607 -26.882669 -1.672539 1.067882 30.582834 7.822664 -2.755917 -26.946163 0.000000 0.000000 0.000000 -7.565996 -3.751613 1.191189 -60.968872 -22.744670 1.727839 -127.076017 -67.816551 117.234570 0.000000 0.000000 0.000000 12.566069 -4.441926 -2.460149 61.053942 19.042056 1.084721 121.319355 43.806418 81.496879 0.000000 0.000000 0.000000 
